<?xml version="1.0" encoding="iso-8859-1"?>
<!-- Generator: Adobe Illustrator 18.1.1, SVG Export Plug-In . SVG Version: 6.00 Build 0)  -->
<svg xmlns="http://www.w3.org/2000/svg" xmlns:xlink="http://www.w3.org/1999/xlink" version="1.1" id="Capa_1" x="0px" y="0px" viewBox="0 0 23.303 23.303" style="enable-background:new 0 0 23.303 23.303;" xml:space="preserve">
	<g>
		<path style="fill:#010002;" d="M22.214,18.84l0.015-0.009l-7.885-7.917l3.579-3.579l3.197-2.06l1.271-2.285l-1.477-1.479    l-2.285,1.273L16.567,5.98l-3.575,3.576L9.445,5.994L9.429,1.289L4.62,0L4.105,0.511l2.558,2.555L4.169,5.565L1.613,3.011    L1.098,3.52l1.291,4.81l4.576,0.012l-0.028,0.03l3.614,3.629l-1.336,1.337l-0.877-0.875l-1.352,1.353l0.42,0.418    c-1.215,0.465-4.567,3.818-5.033,5.031l-0.418-0.419l-1.35,1.353l3.104,3.104l1.353-1.354l-0.422-0.42    c1.215-0.462,4.569-3.817,5.033-5.03l0.419,0.421l1.352-1.354l-0.875-0.876l1.333-1.333l7.881,7.912l0.014-0.01    c0.672,0.65,1.744,0.651,2.401-0.013C22.862,20.585,22.864,19.515,22.214,18.84z M21.565,20.609c-0.296,0.296-0.774,0.299-1.073,0    c-0.291-0.296-0.296-0.771-0.002-1.071c0.301-0.296,0.777-0.296,1.075,0C21.864,19.833,21.864,20.311,21.565,20.609z"/>
	</g>
</svg>
