<?xml version="1.0" encoding="iso-8859-1"?>
<!-- Generator: Adobe Illustrator 16.0.0, SVG Export Plug-In . SVG Version: 6.00 Build 0)  -->
<!DOCTYPE svg PUBLIC "-//W3C//DTD SVG 1.1//EN" "http://www.w3.org/Graphics/SVG/1.1/DTD/svg11.dtd">
<svg xmlns="http://www.w3.org/2000/svg" xmlns:xlink="http://www.w3.org/1999/xlink" version="1.1" id="Capa_1" x="0px" y="0px" width="29.919px" height="29.919px" viewBox="0 0 29.919 29.919" style="enable-background:new 0 0 29.919 29.919;" xml:space="preserve">
<g>
	<g>
		<path d="M26.556,19.628c-1.392-7.572-8.174-13.237-16.085-13.39l-0.005-1.653h1.072c0.828,0,1.5-0.671,1.5-1.5s-0.672-1.5-1.5-1.5    H7.402c-0.828,0-1.5,0.671-1.5,1.5s0.672,1.5,1.5,1.5h1.063l0.013,4.863C3.721,9.945,0,13.977,0,18.865    c0,5.221,4.248,9.469,9.469,9.469c5.221,0,9.469-4.248,9.469-9.469c0-4.88-3.712-8.907-8.458-9.414l-0.003-1.213    c6.862,0.153,12.75,4.998,14.068,11.507c-1.707,0.521-2.959,2.092-2.959,3.967c0,2.298,1.869,4.167,4.167,4.167    s4.167-1.869,4.167-4.167C29.919,21.69,28.469,20.004,26.556,19.628z M16.938,18.864c0,0.394-0.038,0.775-0.099,1.153    l-5.147-1.095l5.136-1.28C16.895,18.042,16.938,18.448,16.938,18.864z M2.001,18.864c0-0.328,0.028-0.647,0.069-0.963l5.176,1.101    l-5.108,1.272C2.051,19.817,2.001,19.347,2.001,18.864z M8.969,16.798l-2.356-4.831c0.733-0.305,1.527-0.49,2.356-0.545V16.798z     M2.266,16.92c0.212-0.785,0.544-1.521,0.983-2.182l4.204,3.285L2.266,16.92z M8.969,26.31c-0.711-0.048-1.393-0.194-2.035-0.428    l2.035-4.568V26.31z M9.969,21.129l2.274,4.665c-0.711,0.285-1.476,0.462-2.274,0.516V21.129z M16.625,20.995    c-0.229,0.767-0.577,1.479-1.024,2.123l-4.117-3.217L16.625,20.995z M9.969,11.422c0.736,0.049,1.443,0.205,2.107,0.454    l-2.107,4.732V11.422z M5.719,12.416l2.351,4.819l-4.208-3.289C4.393,13.342,5.02,12.824,5.719,12.416z M2.394,21.241l5.094-1.271    l-3.996,3.354C3.023,22.698,2.649,21.997,2.394,21.241z M4.138,24.087l3.991-3.35l-2.112,4.744    C5.319,25.116,4.685,24.646,4.138,24.087z M13.145,25.358l-2.278-4.668l4.105,3.207C14.444,24.474,13.83,24.97,13.145,25.358z     M16.607,16.667l-5.159,1.285l4.086-3.428C15.999,15.171,16.367,15.89,16.607,16.667z M14.899,13.753l-4.093,3.436l2.185-4.907    C13.706,12.666,14.347,13.167,14.899,13.753z M26.127,21.084c0.453,0.065,0.867,0.241,1.219,0.504l-1.219,1.219V21.084z     M25.377,22.808l-1.221-1.22c0.351-0.265,0.766-0.44,1.221-0.505V22.808z M24.844,23.338h-1.723    c0.063-0.454,0.24-0.868,0.504-1.22L24.844,23.338z M24.845,24.088l-1.219,1.219c-0.265-0.351-0.438-0.766-0.505-1.219H24.845z     M25.377,24.618v1.724c-0.454-0.062-0.869-0.239-1.221-0.504L25.377,24.618z M26.127,24.62l1.219,1.219    c-0.352,0.264-0.766,0.439-1.219,0.503V24.62z M26.656,24.088h1.725c-0.063,0.454-0.241,0.869-0.505,1.22L26.656,24.088z     M26.656,23.338l1.221-1.22c0.264,0.352,0.438,0.766,0.504,1.22H26.656z"/>
	</g>
</g>
<g>
</g>
<g>
</g>
<g>
</g>
<g>
</g>
<g>
</g>
<g>
</g>
<g>
</g>
<g>
</g>
<g>
</g>
<g>
</g>
<g>
</g>
<g>
</g>
<g>
</g>
<g>
</g>
<g>
</g>
</svg>
